<svg xmlns="http://www.w3.org/2000/svg" width="168" height="100" fill="none"><g filter="url(#a)"><rect width="126.75" height="85.5" x=".973" fill="url(#b)" rx="2.734"/><rect width="125.75" height="84.5" x="1.473" y=".5" stroke="#455ED4" rx="2.234"/><circle cx="7.998" cy="5.926" r="2.423" fill="#94A1F5"/><circle cx="14.998" cy="5.926" r="2.423" fill="#94A1F5"/><circle cx="21.997" cy="5.926" r="2.423" fill="#94A1F5"/><rect width="95.974" height="4.846" x="27.379" y="3.504" fill="#94A1F5" rx="2.423"/><path stroke="#455ED4" d="M1.348 11.58h125.738"/></g><g filter="url(#c)"><path fill="url(#d)" d="M69.223 45c0-2.9 2.35-5.25 5.25-5.25h78a5.25 5.25 0 0 1 5.25 5.25v48h-88.5V45z"/><path stroke="#455ED4" d="M69.723 45a4.75 4.75 0 0 1 4.75-4.75h78a4.75 4.75 0 0 1 4.75 4.75v47.5h-87.5V45z"/><mask id="e" fill="#fff"><path fill-rule="evenodd" d="M131.108 61.436c4.24 1.274 7.329 5.208 7.329 9.863 0 5.686-4.61 10.296-10.296 10.296H98.807c-5.686 0-10.296-4.61-10.296-10.296 0-5.687 4.61-10.297 10.296-10.297h3.655c2.171-5.754 7.73-9.847 14.245-9.847 6.677 0 12.35 4.3 14.401 10.281z" clip-rule="evenodd"/></mask><path fill="#455ED4" d="m131.108 61.436-.946.325.166.485.492.148.288-.958zm-28.646-.434v1h.691l.244-.647-.935-.353zm28.358 1.392a9.301 9.301 0 0 1 6.617 8.905h2c0-5.109-3.39-9.423-8.041-10.82l-.576 1.915zm6.617 8.905a9.296 9.296 0 0 1-9.296 9.296v2c6.238 0 11.296-5.057 11.296-11.296h-2zm-9.296 9.296H98.807v2h29.334v-2zm-29.334 0a9.297 9.297 0 0 1-9.296-9.296h-2c0 6.239 5.057 11.296 11.296 11.296v-2zM89.511 71.3a9.296 9.296 0 0 1 9.296-9.297v-2c-6.239 0-11.296 5.058-11.296 11.297h2zm9.296-9.297h3.655v-2h-3.655v2zm4.59-.647c2.03-5.378 7.225-9.2 13.31-9.2v-2c-6.945 0-12.867 4.363-15.181 10.494l1.871.706zm13.31-9.2c6.237 0 11.538 4.016 13.455 9.606l1.892-.649c-2.185-6.373-8.23-10.957-15.347-10.957v2z" mask="url(#e)"/></g><path stroke="#455ED4" d="M166.955 92.75a7 7 0 0 1-6.982 6.5h-93.75a7 7 0 0 1-6.983-6.5h107.715z"/><g filter="url(#f)"><path fill="#455ED4" d="M94.723 92.25h36.75a2.25 2.25 0 0 1-2.25 2.25h-32.25a2.25 2.25 0 0 1-2.25-2.25z"/></g><defs><filter id="a" width="137.403" height="96.153" x="-4.354" y="-5.326" color-interpolation-filters="sRGB" filterUnits="userSpaceOnUse"><feFlood flood-opacity="0" result="BackgroundImageFix"/><feGaussianBlur in="BackgroundImageFix" stdDeviation="2.663"/><feComposite in2="SourceAlpha" operator="in" result="effect1_backgroundBlur_65_1499"/><feBlend in="SourceGraphic" in2="effect1_backgroundBlur_65_1499" result="shape"/></filter><filter id="c" width="108.952" height="73.702" x="58.996" y="29.524" color-interpolation-filters="sRGB" filterUnits="userSpaceOnUse"><feFlood flood-opacity="0" result="BackgroundImageFix"/><feGaussianBlur in="BackgroundImageFix" stdDeviation="5.113"/><feComposite in2="SourceAlpha" operator="in" result="effect1_backgroundBlur_65_1499"/><feBlend in="SourceGraphic" in2="effect1_backgroundBlur_65_1499" result="shape"/></filter><filter id="f" width="82.158" height="47.658" x="72.019" y="69.546" color-interpolation-filters="sRGB" filterUnits="userSpaceOnUse"><feFlood flood-opacity="0" result="BackgroundImageFix"/><feGaussianBlur in="BackgroundImageFix" stdDeviation="11.352"/><feComposite in2="SourceAlpha" operator="in" result="effect1_backgroundBlur_65_1499"/><feBlend in="SourceGraphic" in2="effect1_backgroundBlur_65_1499" result="shape"/></filter><linearGradient id="b" x1="40.053" x2="86.338" y1="0" y2="79.555" gradientUnits="userSpaceOnUse"><stop stop-color="#F6F6F6"/><stop offset=".626" stop-color="#F6F6F6" stop-opacity=".2"/></linearGradient><linearGradient id="d" x1="96.509" x2="123.624" y1="39.75" y2="91.998" gradientUnits="userSpaceOnUse"><stop stop-color="#F6F6F6"/><stop offset=".5" stop-color="#F6F6F6" stop-opacity=".2"/><stop offset="1" stop-color="#F6F6F6"/></linearGradient></defs></svg>