<svg xmlns="http://www.w3.org/2000/svg" width="179" height="95" fill="none"><g filter="url(#a)"><path fill="url(#b)" d="M17.055 3.875a3 3 0 0 1 3-3h132a3 3 0 0 1 3 3v80h-138v-80z"/><path stroke="#000" d="M17.555 3.875a2.5 2.5 0 0 1 2.5-2.5h132a2.5 2.5 0 0 1 2.5 2.5v79.5h-137v-79.5z"/></g><g filter="url(#c)"><rect width="53" height="20" x="125.787" y="44.222" fill="url(#d)" rx="7"/><rect width="52" height="19" x="126.287" y="44.722" stroke="#000" rx="6.5"/><path fill="#000" d="M138.164 58.354c-1.496 0-2.981-.814-3.069-2.772h1.309c.088 1.199.924 1.562 1.76 1.562.946 0 1.562-.396 1.562-1.09 0-.384-.242-.89-1.045-1.011l-1.243-.187c-1.276-.187-2.046-1.056-2.046-2.123 0-1.408 1.309-2.343 2.728-2.343 1.628 0 2.75.858 2.816 2.497h-1.32c-.066-.98-.726-1.298-1.507-1.298-.924 0-1.408.528-1.408 1.11 0 .474.374.804.913.88l1.309.199c1.309.198 2.123 1.1 2.123 2.244 0 1.496-1.507 2.332-2.882 2.332zm7.169-.132h-1.056c-1.089 0-1.672-.286-1.672-1.672v-2.607h-.935v-1.177h.935v-1.463h1.408v1.463h1.364v1.177h-1.364v2.43c0 .55.143.65.693.65h.627v1.199zm3.842.132c-1.661 0-2.827-1.144-2.827-2.816 0-1.705 1.133-2.904 2.838-2.904 1.617 0 2.728 1.166 2.728 2.673 0 .154-.011.33-.022.528h-4.147c.066.858.649 1.364 1.419 1.364.561 0 .957-.275 1.155-.693h1.43c-.308 1.045-1.265 1.848-2.574 1.848zm-1.408-3.4h2.717c-.044-.714-.583-1.176-1.298-1.176-.693 0-1.265.396-1.419 1.177zm4.836-1.011v-1.177h.748v-.715c0-1.507.484-1.75 1.793-1.75h.671v1.2h-.385c-.539 0-.671.12-.671.627v.638h1.056v1.177h-1.056v4.279h-1.408v-4.28h-.748zm4.283 2.76c0-1.022.77-1.781 2.365-1.781.594 0 1.089.12 1.397.23v-.285c0-.748-.473-1.09-1.111-1.09-.583 0-1.045.276-1.144.804h-1.375c.11-1.2 1.166-1.947 2.53-1.947 1.551 0 2.508.814 2.508 2.233v1.507c0 .55.143.649.627.649h.121v1.199h-.484c-.847 0-1.397-.187-1.595-.913-.308.605-.869 1.045-1.793 1.045-1.408 0-2.046-.748-2.046-1.65zm1.485-.153c0 .44.352.704.88.704.781 0 1.21-.561 1.353-1.298-.319-.088-.759-.187-1.188-.187-.737 0-1.045.363-1.045.78zm6.77 1.672h-1.408v-5.456h1.408v.825c.352-.583.99-.957 1.804-.957 1.353 0 2.134.869 2.134 2.508v3.08h-1.408v-2.948c0-.935-.363-1.452-1.177-1.452-.792 0-1.353.583-1.353 1.584v2.816z"/></g><g filter="url(#e)"><path fill="#939393" d="M57.055 82.875h56v.407a5.593 5.593 0 0 1-5.593 5.593H62.648a5.593 5.593 0 0 1-5.593-5.593v-.407z"/></g><path stroke="#000" d="M169.544 83.375c-.262 6.12-5.306 11-11.489 11h-146c-6.184 0-11.228-4.88-11.49-11h168.979z"/><g filter="url(#f)"><path fill="#828282" d="M65.75 29.508c.003-.974-1.158-1.505-1.916-.876L40.698 47.819c-.834.692-.325 2.03.768 2.015l12.993-.178c.355-.005.694.15.918.42l8.219 9.877c.691.83 2.063.353 2.066-.72l.088-29.725z"/></g><g filter="url(#g)"><path fill="#828282" d="M113.055 16.023c-.003-.974 1.157-1.505 1.915-.876l23.136 19.187c.835.693.325 2.03-.767 2.015l-12.994-.178a1.174 1.174 0 0 0-.918.42l-8.218 9.877c-.691.831-2.063.354-2.066-.719l-.088-29.726z"/></g><g filter="url(#h)"><rect width="49" height="20" x="5.35" y="56.375" fill="url(#i)" rx="7"/><rect width="48" height="19" x="5.85" y="56.875" stroke="#000" rx="6.5"/><path fill="#000" d="M18.706 70.507c-2.3 0-3.861-1.628-3.861-3.982s1.562-3.982 3.86-3.982c2.289 0 3.85 1.628 3.85 3.982s-1.561 3.982-3.85 3.982zm0-1.265c1.463 0 2.42-1.034 2.42-2.717s-.957-2.717-2.42-2.717c-1.474 0-2.42 1.034-2.42 2.717s.946 2.717 2.42 2.717zm6.468 1.133h-1.408v-7.92h1.408v7.92zm2.902 0h-1.409v-5.456h1.409v5.456zm-1.585-6.303v-1.617h1.771v1.617h-1.77zm6.233 6.303H31.02l-2.002-5.456h1.474l1.386 4.125 1.386-4.125h1.474l-2.013 5.456zm4.364 0H35.68v-5.456h1.408v5.456zm-1.584-6.303v-1.617h1.771v1.617h-1.77zm2.889 4.785c0-1.023.77-1.782 2.365-1.782.594 0 1.089.121 1.397.231v-.286c0-.748-.473-1.089-1.111-1.089-.583 0-1.045.275-1.144.803h-1.375c.11-1.199 1.166-1.947 2.53-1.947 1.55 0 2.508.814 2.508 2.233v1.507c0 .55.143.649.627.649h.12v1.199h-.483c-.847 0-1.397-.187-1.595-.913-.308.605-.87 1.045-1.793 1.045-1.408 0-2.046-.748-2.046-1.65zm1.485-.154c0 .44.352.704.88.704.78 0 1.21-.561 1.353-1.298-.32-.088-.76-.187-1.188-.187-.737 0-1.045.363-1.045.781z"/></g><defs><filter id="a" width="148.653" height="93.653" x="11.728" y="-4.451" color-interpolation-filters="sRGB" filterUnits="userSpaceOnUse"><feFlood flood-opacity="0" result="BackgroundImageFix"/><feGaussianBlur in="BackgroundImageFix" stdDeviation="2.663"/><feComposite in2="SourceAlpha" operator="in" result="effect1_backgroundBlur_65_1474"/><feBlend in="SourceGraphic" in2="effect1_backgroundBlur_65_1474" result="shape"/></filter><filter id="c" width="75.2" height="42.2" x="114.687" y="33.122" color-interpolation-filters="sRGB" filterUnits="userSpaceOnUse"><feFlood flood-opacity="0" result="BackgroundImageFix"/><feGaussianBlur in="BackgroundImageFix" stdDeviation="5.55"/><feComposite in2="SourceAlpha" operator="in" result="effect1_backgroundBlur_65_1474"/><feBlend in="SourceGraphic" in2="effect1_backgroundBlur_65_1474" result="shape"/></filter><filter id="e" width="101.408" height="51.408" x="34.351" y="60.171" color-interpolation-filters="sRGB" filterUnits="userSpaceOnUse"><feFlood flood-opacity="0" result="BackgroundImageFix"/><feGaussianBlur in="BackgroundImageFix" stdDeviation="11.352"/><feComposite in2="SourceAlpha" operator="in" result="effect1_backgroundBlur_65_1474"/><feBlend in="SourceGraphic" in2="effect1_backgroundBlur_65_1474" result="shape"/></filter><filter id="f" width="45.919" height="52.468" x="30.057" y="18.134" color-interpolation-filters="sRGB" filterUnits="userSpaceOnUse"><feFlood flood-opacity="0" result="BackgroundImageFix"/><feGaussianBlur in="BackgroundImageFix" stdDeviation="5.113"/><feComposite in2="SourceAlpha" operator="in" result="effect1_backgroundBlur_65_1474"/><feBlend in="SourceGraphic" in2="effect1_backgroundBlur_65_1474" result="shape"/></filter><filter id="g" width="45.919" height="52.468" x="102.829" y="4.649" color-interpolation-filters="sRGB" filterUnits="userSpaceOnUse"><feFlood flood-opacity="0" result="BackgroundImageFix"/><feGaussianBlur in="BackgroundImageFix" stdDeviation="5.113"/><feComposite in2="SourceAlpha" operator="in" result="effect1_backgroundBlur_65_1474"/><feBlend in="SourceGraphic" in2="effect1_backgroundBlur_65_1474" result="shape"/></filter><filter id="h" width="71.2" height="42.2" x="-5.75" y="45.275" color-interpolation-filters="sRGB" filterUnits="userSpaceOnUse"><feFlood flood-opacity="0" result="BackgroundImageFix"/><feGaussianBlur in="BackgroundImageFix" stdDeviation="5.55"/><feComposite in2="SourceAlpha" operator="in" result="effect1_backgroundBlur_65_1474"/><feBlend in="SourceGraphic" in2="effect1_backgroundBlur_65_1474" result="shape"/></filter><linearGradient id="b" x1="59.603" x2="101.856" y1=".875" y2="82.327" gradientUnits="userSpaceOnUse"><stop stop-color="#F6F6F6"/><stop offset=".626" stop-color="#F6F6F6" stop-opacity=".2"/></linearGradient><linearGradient id="d" x1="142.128" x2="149.459" y1="44.222" y2="66.745" gradientUnits="userSpaceOnUse"><stop stop-color="#ABB3FF"/><stop offset="1" stop-color="#E0E0E0" stop-opacity="0"/></linearGradient><linearGradient id="i" x1="20.457" x2="28.259" y1="56.375" y2="78.537" gradientUnits="userSpaceOnUse"><stop stop-color="#ABB3FF"/><stop offset="1" stop-color="#E0E0E0" stop-opacity="0"/></linearGradient></defs></svg>