<svg xmlns="http://www.w3.org/2000/svg" width="174" height="100" fill="none"><g clip-path="url(#a)"><rect width="124.5" height="84" x="35.31" fill="url(#b)" rx="5.25"/><path stroke="#0F7F8A" d="M35.31 64.007h124.5"/></g><rect width="123.5" height="83" x="35.81" y=".5" stroke="#0F7F8A" rx="4.75"/><g filter="url(#c)"><rect width="69" height="46.5" x=".06" y="53.25" fill="url(#d)" rx="5.25"/><rect width="68" height="45.5" x=".56" y="53.75" stroke="#0F7F8A" rx="4.75"/></g><g filter="url(#e)"><rect width="52.5" height="27.75" x="173.31" y="47.25" fill="url(#f)" rx="5.25" transform="rotate(90 173.31 47.25)"/><rect width="51.5" height="26.75" x="172.81" y="47.75" stroke="#0F7F8A" rx="4.75" transform="rotate(90 172.81 47.75)"/></g><path stroke="#0F7F8A" d="M83.81 83.488h27.5v12.398h-27.5zm-8.25 12.436h44v3.326h-44z"/><defs><linearGradient id="b" x1="90.721" x2="107.445" y1="17.218" y2="59.13" gradientUnits="userSpaceOnUse"><stop stop-color="#F6F6F6"/><stop offset=".997" stop-color="#F6F6F6" stop-opacity=".31"/></linearGradient><linearGradient id="d" x1="21.334" x2="46.495" y1="53.25" y2="96.538" gradientUnits="userSpaceOnUse"><stop stop-color="#F6F6F6"/><stop offset=".5" stop-color="#F6F6F6" stop-opacity=".31"/><stop offset="1" stop-color="#F6F6F6"/></linearGradient><linearGradient id="f" x1="189.497" x2="202.541" y1="47.25" y2="75.864" gradientUnits="userSpaceOnUse"><stop stop-color="#F6F6F6"/><stop offset=".5" stop-color="#F6F6F6" stop-opacity=".24"/><stop offset="1" stop-color="#F6F6F6"/></linearGradient><filter id="c" width="85.65" height="63.15" x="-8.265" y="44.925" color-interpolation-filters="sRGB" filterUnits="userSpaceOnUse"><feFlood flood-opacity="0" result="BackgroundImageFix"/><feGaussianBlur in="BackgroundImageFix" stdDeviation="4.162"/><feComposite in2="SourceAlpha" operator="in" result="effect1_backgroundBlur_65_1484"/><feBlend in="SourceGraphic" in2="effect1_backgroundBlur_65_1484" result="shape"/></filter><filter id="e" width="44.4" height="69.15" x="137.235" y="38.925" color-interpolation-filters="sRGB" filterUnits="userSpaceOnUse"><feFlood flood-opacity="0" result="BackgroundImageFix"/><feGaussianBlur in="BackgroundImageFix" stdDeviation="4.162"/><feComposite in2="SourceAlpha" operator="in" result="effect1_backgroundBlur_65_1484"/><feBlend in="SourceGraphic" in2="effect1_backgroundBlur_65_1484" result="shape"/></filter><clipPath id="a"><rect width="124.5" height="84" x="35.31" fill="#fff" rx="5.25"/></clipPath></defs></svg>